<svg id="Camada_1" data-name="Camada 1" xmlns="http://www.w3.org/2000/svg" xmlns:xlink="http://www.w3.org/1999/xlink" viewBox="0 0 912.31 898"><defs><image id="image" width="64" height="64" xlink:href="../../AppData/Local/Temp/icons8_cook_64px.png"/><image id="image-2" width="52" height="52" xlink:href="../../AppData/Local/Temp/icons8_british_pound_52px.png"/><image id="image-3" width="48" height="48" xlink:href="../../AppData/Local/Temp/icons8_us_dollar_48px.png"/></defs><title>Baker background</title><image width="96" height="96" transform="translate(539 597)" xlink:href="icons8_cookie_96px_2.png"/><use transform="translate(15 212)" xlink:href="#image"/><use transform="translate(1315 859)" xlink:href="#image"/><image width="64" height="64" transform="translate(82 724)" xlink:href="../../AppData/Local/Temp/icons8_chef_hat_64px.png"/><image width="64" height="64" transform="translate(194 385)" xlink:href="../../AppData/Local/Temp/icons8_kitchen_64px.png"/><image width="100" height="100" transform="translate(696 497)" xlink:href="../../AppData/Local/Temp/icons8_wheat_100px.png"/><image width="64" height="64" transform="translate(373 818)" xlink:href="../../AppData/Local/Temp/icons8_bread_64px_1.png"/><image width="64" height="64" transform="translate(178 80)" xlink:href="../../AppData/Local/Temp/icons8_bread_64px_2.png"/><image width="64" height="64" transform="translate(210 834)" xlink:href="../../AppData/Local/Temp/icons8_croissant_64px.png"/><image width="64" height="64" transform="translate(374 196)" xlink:href="../../AppData/Local/Temp/icons8_confectionery_64px.png"/><image width="64" height="64" transform="translate(529 15)" xlink:href="../../AppData/Local/Temp/icons8_cute_cake_64px.png"/><image width="64" height="64" transform="translate(114 533)" xlink:href="../../AppData/Local/Temp/icons8_birthday_cake_64px.png"/><image width="64" height="64" transform="translate(657 47)" xlink:href="../../AppData/Local/Temp/icons8_pastry_bag_64px.png"/><image width="52" height="52" transform="translate(561 484)" xlink:href="../../AppData/Local/Temp/icons8_pretzel_52px.png"/><image width="160" height="160" transform="translate(373 300)" xlink:href="../../AppData/Local/Temp/icons8_kawaii_cupcake_160px.png"/><image width="96" height="96" transform="translate(210 252) scale(0.83)" xlink:href="../../AppData/Local/Temp/icons8_paper_money_96px_1.png"/><use transform="translate(670 667)" xlink:href="#image-2"/><use transform="translate(851 511)" xlink:href="#image-2"/><use transform="translate(0 436)" xlink:href="#image-3"/><use transform="translate(1226 1251)" xlink:href="#image-3"/><image width="48" height="48" transform="translate(453 708)" xlink:href="../../AppData/Local/Temp/icons8_alarm_clock_48px.png"/><image width="96" height="96" transform="translate(622 300)" xlink:href="../../AppData/Local/Temp/icons8_schedule_96px.png"/><image width="100" height="100" transform="translate(308 497)" xlink:href="../../AppData/Local/Temp/icons8_sunny_side_up_eggs_100px.png"/><image width="64" height="64" transform="translate(561 180)" xlink:href="../../AppData/Local/Temp/icons8_ingredients_64px.png"/><image width="64" height="64" transform="translate(842 571)" xlink:href="../../AppData/Local/Temp/icons8_microwave_64px.png"/><image width="48" height="48" transform="translate(814 172)" xlink:href="../../AppData/Local/Temp/icons8_cookies_48px.png"/><image width="128" height="128" transform="translate(563 813) scale(0.58)" xlink:href="../../AppData/Local/Temp/icons8_wheat_128px.png"/><image width="128" height="128" transform="translate(838 682) scale(0.58)" xlink:href="../../AppData/Local/Temp/icons8_toast_128px.png"/><image width="96" height="96" transform="translate(210 619)" xlink:href="../../AppData/Local/Temp/icons8_user_shield_96px.png"/></svg>