<?xml version="1.0" encoding="UTF-8"?>
<svg xmlns="http://www.w3.org/2000/svg" xmlns:xlink="http://www.w3.org/1999/xlink" viewBox="0 0 96 96" width="96px" height="96px">
<g id="surface294384">
<path style=" stroke:none;fill-rule:nonzero;fill:rgb(100%,100%,100%);fill-opacity:1;" d="M 47.902344 8 C 47.261719 8.023438 46.648438 8.246094 46.144531 8.644531 L 17.71875 31.039062 C 14.109375 33.882812 12 38.226562 12 42.820312 L 12 81 C 12 83.726562 14.273438 86 17 86 L 37 86 C 39.726562 86 42 83.726562 42 81 L 42 61 C 42 60.410156 42.410156 60 43 60 L 53 60 C 53.589844 60 54 60.410156 54 61 L 54 81 C 54 83.726562 56.273438 86 59 86 L 79 86 C 81.726562 86 84 83.726562 84 81 L 84 42.820312 C 84 38.226562 81.890625 33.882812 78.28125 31.039062 L 49.855469 8.644531 C 49.300781 8.207031 48.609375 7.976562 47.902344 8 Z M 48 14.820312 L 74.570312 35.753906 C 76.738281 37.460938 78 40.0625 78 42.820312 L 78 80 L 60 80 L 60 61 C 60 57.171875 56.828125 54 53 54 L 43 54 C 39.171875 54 36 57.171875 36 61 L 36 80 L 18 80 L 18 42.820312 C 18 40.0625 19.261719 37.460938 21.429688 35.753906 Z M 48 14.820312 "/>
</g>
</svg>
